<svg version="1.2" xmlns="http://www.w3.org/2000/svg" viewBox="0 0 431 141" width="431" height="141">
	<style>
		.s0 { fill: #f9fafb } 
		.s1 { opacity: 0;fill: #61c198 } 
	</style>
	<g>
		<path class="s0" d="m137.85 119.89c-2.7 5.33-8.17 4.81-13.31 4.74l-0.2-3.21h-5.13l-0.18 3.18h-5.49l-3.44-5.05c-0.28-0.41-1.64-0.52-1.89-0.15l-3.66 5.28-3.63-4.96c-0.12-0.15-0.57-0.45-0.73-0.45-0.16 0.02-0.58 0.33-0.69 0.5l-3 4.86-11.86-0.12 9.78-16.37 23.94-0.03-11.96-19.85 8.85-14.66 22.51 37.36c1.63 2.72 1.5 6.13 0.09 8.93z"/>
		<g>
			<path class="s0" d="m83.1 20.32c-1.91-2.99-4.79-4.48-8.08-4.37-3.15 0.1-6.04 1.57-7.84 4.53l-54.31 90.19c-1.77 2.95-1.65 6.62-0.06 9.34 1.5 2.56 4.13 4.38 7.51 4.62h56.12l34.66-57.92zm-0.54 54.21c-0.32 2.04-1.74 3.74-3.49 5.35l2.5 12.79c0.09 0.49-0.8 1.48-1.37 1.48h-9.94c-0.44 0.01-1.48-0.72-1.37-1.19l2.73-13.37c-3.41-2.21-4.74-6.06-3.17-9.51 1.48-3.22 5.23-5.08 8.65-4.12 3.8 1.05 6.09 4.48 5.46 8.57z"/>
			<path class="s1" d="m79.07 79.88l2.5 12.79c0.09 0.49-0.8 1.48-1.37 1.48h-9.94c-0.44 0.01-1.48-0.72-1.37-1.19l2.73-13.37c-3.41-2.21-4.74-6.06-3.17-9.51 1.48-3.22 5.23-5.08 8.65-4.12 3.8 1.05 6.09 4.48 5.46 8.57-0.32 2.04-1.74 3.74-3.49 5.35z"/>
		</g>
	</g>
	<g>
		<path class="s0" d="m403.85 49.93c-5.55-1.59-11.51-1.53-16.97 0.38-9.06 3.19-14.7 11.44-14.48 20.63 0.21 9.12 6.08 17.16 15.29 19.89 5.53 1.64 11.48 1.71 17.14-0.19 9.26-3.13 14.66-11.27 14.45-20.6-0.22-9.48-6.09-17.45-15.43-20.11zm-7.98 34c-7.61 0-13.77-6.06-13.77-13.53 0-7.47 6.16-13.53 13.77-13.53 7.61 0 13.77 6.06 13.77 13.53 0 7.47-6.16 13.53-13.77 13.53z"/>
		<path class="s0" d="m291.77 54.32c-0.56 3.45-3.49 5.87-7.31 5.72l-7.9 21.37c3.3 2.51 3.88 6.95 1.38 9.89-2.58 3.06-7.4 3.25-10.15 0.46-2.88-2.91-2.56-7.53 0.69-10.14l-9.23-21.48-2.37-0.07-9.23 21.54c2.99 2.67 3.49 7.03 0.74 9.97-2.59 2.76-7.35 2.85-9.95 0.02-2.73-2.97-2.34-7.59 1.08-10.23l-7.88-21.32c-3.37 0.29-6.32-1.87-7.18-4.92-0.96-3.32 0.87-6.68 4.04-7.93 3.18-1.27 6.75 0.13 8.37 2.97 1.73 3.06 0.67 6.65-2.16 8.77l7.81 21.06c0.5 0.4 1.74 0.36 2.26 0l9.07-21.31c-3.21-2.64-3.4-6.91-0.89-9.77 2.54-2.88 7.22-2.9 9.88-0.2 2.78 2.84 2.52 7.27-0.71 9.95l9.28 21.53c0.6 0.03 1.53 0 2.09-0.06l7.84-21.09c-2.73-2.17-3.82-5.48-2.29-8.57 1.47-2.94 4.82-4.52 8.08-3.46 3.13 1.02 5.15 4.11 4.64 7.29z"/>
		<path class="s0" d="m219.95 91.35l-31.16 0.11c-0.88 0.13-2.06-0.36-2.06-1.38l0.05-40.55h32.37c0.24 2.61 0.23 4.72 0.07 7.62l-22.78 0.1 0.05 8.91h19.83l0.07 7.59-19.95 0.05 0.03 9.8 23.53 0.05c0.22 2.66 0.23 5.02-0.05 7.7z"/>
		<path class="s0" d="m334.09 89.46l-17.28-36.94c-1.3-2.79-3.74-3.64-6.54-3.56-2.75 0.08-4.67 1.24-5.85 3.79l-17.15 36.79c-0.29 0.62 0.19 1.89 0.8 1.89l8.53-0.02 4.02-9.11h20.04l3.88 9.04 8.59 0.08c0.37 0 1.1-0.52 1.11-0.81 0-0.22-0.02-0.87-0.15-1.15zm-30.05-14.8l6.52-15.06 6.64 15z"/>
		<path class="s0" d="m180.05 81.5c-1.97 12.3-22.83 13.29-34.4 5.7-0.37-0.23-0.91-0.77-0.99-1.09-0.09-0.33 0.13-1.12 0.33-1.48l3.17-5.61c6.24 3.82 13.52 6.84 20.2 4.03 1.18-0.49 2.21-1.86 2.32-2.82 0.65-5.9-11.03-4.81-19.29-9.07-3.87-1.99-6.15-5.7-5.95-10 0.22-4.63 3.1-8.34 7.37-10.28 7.34-3.32 19.34-2.71 25.83 2.48l-3.05 6.95c-3.57-1.57-6.53-3.17-10.2-3.54-3.85-0.39-10.46 0.06-10.11 4.88 0.08 1.17 1.3 2.5 2.77 2.88l11.91 3.17c7.06 1.88 11.23 6.7 10.09 13.8z"/>
		<path class="s0" d="m370.63 90.16c0.01 0.82-0.84 1.29-1.73 1.29l-29.61-0.07-0.06-41.72 9.75-0.1 0.06 33.83 21.52 0.04z"/>
	</g>
</svg>