<?xml version="1.0" encoding="UTF-8"?>
<svg id="Layer_1" data-name="Layer 1" xmlns="http://www.w3.org/2000/svg" viewBox="0 0 430.88 140.62">
  <defs>
    <style>
      .cls-1 {
        fill: #1b3764;
      }

      .cls-2 {
        fill: #61c198;
      }
    </style>
  </defs>
  <g>
    <path class="cls-1" d="M137.85,119.89c-2.7,5.33-8.17,4.81-13.31,4.74l-.2-3.21h-5.13s-.18,3.18-.18,3.18h-5.49s-3.44-5.05-3.44-5.05c-.28-.41-1.64-.52-1.89-.15l-3.66,5.28-3.63-4.96c-.12-.15-.57-.45-.73-.45-.16.02-.58.33-.69.5l-3,4.86-11.86-.12,9.78-16.37,23.94-.03-11.96-19.85,8.85-14.66,22.51,37.36c1.63,2.72,1.5,6.13.09,8.93Z"/>
    <g>
      <path class="cls-1" d="M83.1,20.32c-1.91-2.99-4.79-4.48-8.08-4.37-3.15.1-6.04,1.57-7.84,4.53L12.87,110.67c-1.77,2.95-1.65,6.62-.06,9.34,1.5,2.56,4.13,4.38,7.51,4.62h56.12l34.66-57.92-28-46.39ZM82.56,74.53c-.32,2.04-1.74,3.74-3.49,5.35l2.5,12.79c.09.49-.8,1.48-1.37,1.48h-9.94c-.44.01-1.48-.72-1.37-1.19l2.73-13.37c-3.41-2.21-4.74-6.06-3.17-9.51,1.48-3.22,5.23-5.08,8.65-4.12,3.8,1.05,6.09,4.48,5.46,8.57Z"/>
      <path class="cls-2" d="M79.07,79.88l2.5,12.79c.09.49-.8,1.48-1.37,1.48h-9.94c-.44.01-1.48-.72-1.37-1.19l2.73-13.37c-3.41-2.21-4.74-6.06-3.17-9.51,1.48-3.22,5.23-5.08,8.65-4.12,3.8,1.05,6.09,4.48,5.46,8.57-.32,2.04-1.74,3.74-3.49,5.35Z"/>
    </g>
  </g>
  <g>
    <path class="cls-1" d="M403.85,49.93c-5.55-1.59-11.51-1.53-16.97.38-9.06,3.19-14.7,11.44-14.48,20.63.21,9.12,6.08,17.16,15.29,19.89,5.53,1.64,11.48,1.71,17.14-.19,9.26-3.13,14.66-11.27,14.45-20.6-.22-9.48-6.09-17.45-15.43-20.11ZM395.87,83.93c-7.61,0-13.77-6.06-13.77-13.53s6.16-13.53,13.77-13.53,13.77,6.06,13.77,13.53-6.16,13.53-13.77,13.53Z"/>
    <path class="cls-1" d="M291.77,54.32c-.56,3.45-3.49,5.87-7.31,5.72l-7.9,21.37c3.3,2.51,3.88,6.95,1.38,9.89-2.58,3.06-7.4,3.25-10.15.46-2.88-2.91-2.56-7.53.69-10.14l-9.23-21.48-2.37-.07-9.23,21.54c2.99,2.67,3.49,7.03.74,9.97-2.59,2.76-7.35,2.85-9.95.02-2.73-2.97-2.34-7.59,1.08-10.23l-7.88-21.32c-3.37.29-6.32-1.87-7.18-4.92-.96-3.32.87-6.68,4.04-7.93,3.18-1.27,6.75.13,8.37,2.97,1.73,3.06.67,6.65-2.16,8.77l7.81,21.06c.5.4,1.74.36,2.26,0l9.07-21.31c-3.21-2.64-3.4-6.91-.89-9.77,2.54-2.88,7.22-2.9,9.88-.2,2.78,2.84,2.52,7.27-.71,9.95l9.28,21.53c.6.03,1.53,0,2.09-.06l7.84-21.09c-2.73-2.17-3.82-5.48-2.29-8.57,1.47-2.94,4.82-4.52,8.08-3.46,3.13,1.02,5.15,4.11,4.64,7.29Z"/>
    <path class="cls-1" d="M219.95,91.35l-31.16.11c-.88.13-2.06-.36-2.06-1.38l.05-40.55h32.37c.24,2.61.23,4.72.07,7.62l-22.78.1.05,8.91h19.83l.07,7.59-19.95.05.03,9.8,23.53.05c.22,2.66.23,5.02-.05,7.7Z"/>
    <path class="cls-1" d="M334.09,89.46l-17.28-36.94c-1.3-2.79-3.74-3.64-6.54-3.56-2.75.08-4.67,1.24-5.85,3.79l-17.15,36.79c-.29.62.19,1.89.8,1.89l8.53-.02,4.02-9.11h20.04s3.88,9.04,3.88,9.04l8.59.08c.37,0,1.1-.52,1.11-.81,0-.22-.02-.87-.15-1.15ZM304.04,74.66l6.52-15.06,6.64,15-13.16.06Z"/>
    <path class="cls-1" d="M180.05,81.5c-1.97,12.3-22.83,13.29-34.4,5.7-.37-.23-.91-.77-.99-1.09-.09-.33.13-1.12.33-1.48l3.17-5.61c6.24,3.82,13.52,6.84,20.2,4.03,1.18-.49,2.21-1.86,2.32-2.82.65-5.9-11.03-4.81-19.29-9.07-3.87-1.99-6.15-5.7-5.95-10,.22-4.63,3.1-8.34,7.37-10.28,7.34-3.32,19.34-2.71,25.83,2.48l-3.05,6.95c-3.57-1.57-6.53-3.17-10.2-3.54-3.85-.39-10.46.06-10.11,4.88.08,1.17,1.3,2.5,2.77,2.88l11.91,3.17c7.06,1.88,11.23,6.7,10.09,13.8Z"/>
    <path class="cls-1" d="M370.63,90.16c.01.82-.84,1.29-1.73,1.29l-29.61-.07-.06-41.72,9.75-.1.06,33.83,21.52.04.07,6.73Z"/>
  </g>
</svg>